<svg xmlns="http://www.w3.org/2000/svg" xmlns:xlink="http://www.w3.org/1999/xlink" width="204" zoomAndPan="magnify" viewBox="0 0 153 46.499999" height="62" preserveAspectRatio="xMidYMid meet" version="1.0"><defs><g/><clipPath id="7f9e31b690"><path d="M 0.8125 4 L 25 4 L 25 43 L 0.8125 43 Z M 0.8125 4 " clip-rule="nonzero"/></clipPath><clipPath id="586f4f6911"><path d="M 5 27 L 19 27 L 19 38.976562 L 5 38.976562 Z M 5 27 " clip-rule="nonzero"/></clipPath><clipPath id="029f42c4ab"><rect x="0" width="25" y="0" height="39"/></clipPath></defs><g fill="#d4af37" fill-opacity="1"><g transform="translate(21.243597, 21.553127)"><g><path d="M 8.078125 -15.640625 C 9.191406 -15.640625 10.144531 -15.429688 10.9375 -15.015625 C 11.738281 -14.609375 12.34375 -14.035156 12.75 -13.296875 C 13.15625 -12.554688 13.359375 -11.703125 13.359375 -10.734375 C 13.359375 -9.753906 13.15625 -8.894531 12.75 -8.15625 C 12.34375 -7.425781 11.738281 -6.851562 10.9375 -6.4375 C 10.144531 -6.03125 9.191406 -5.828125 8.078125 -5.828125 L 5.125 -5.828125 L 5.125 0 L 2.03125 0 L 2.03125 -15.640625 Z M 7.671875 -8.28125 C 9.390625 -8.28125 10.25 -9.097656 10.25 -10.734375 C 10.25 -12.367188 9.390625 -13.1875 7.671875 -13.1875 L 5.125 -13.1875 L 5.125 -8.28125 Z M 7.671875 -8.28125 "/></g></g></g><g fill="#d4af37" fill-opacity="1"><g transform="translate(38.818039, 21.553127)"><g><path d="M 5.125 -6.859375 L 5.125 -2.59375 L 12.59375 -2.59375 L 12.59375 0 L 2.03125 0 L 2.03125 -15.640625 L 12.421875 -15.640625 L 12.421875 -13.046875 L 5.125 -13.046875 L 5.125 -9.390625 L 11.5 -9.390625 L 11.5 -6.859375 Z M 5.125 -6.859375 "/></g></g></g><g fill="#d4af37" fill-opacity="1"><g transform="translate(55.547665, 21.553127)"><g><path d="M 2.03125 0 L 2.03125 -15.640625 L 8.3125 -15.640625 C 9.925781 -15.640625 11.144531 -15.265625 11.96875 -14.515625 C 12.789062 -13.773438 13.203125 -12.75 13.203125 -11.4375 C 13.203125 -10.488281 12.960938 -9.707031 12.484375 -9.09375 C 12.003906 -8.488281 11.285156 -8.03125 10.328125 -7.71875 L 10.328125 -7.484375 C 10.828125 -7.273438 11.226562 -6.957031 11.53125 -6.53125 C 11.832031 -6.113281 12.117188 -5.488281 12.390625 -4.65625 L 13.953125 0 L 10.765625 0 L 9.234375 -4.671875 C 9.078125 -5.140625 8.898438 -5.503906 8.703125 -5.765625 C 8.515625 -6.023438 8.269531 -6.210938 7.96875 -6.328125 C 7.664062 -6.453125 7.269531 -6.515625 6.78125 -6.515625 L 5.125 -6.515625 L 5.125 0 Z M 7.9375 -8.96875 C 9.4375 -8.96875 10.1875 -9.664062 10.1875 -11.0625 C 10.1875 -12.476562 9.4375 -13.1875 7.9375 -13.1875 L 5.125 -13.1875 L 5.125 -8.96875 Z M 7.9375 -8.96875 "/></g></g></g><g fill="#d4af37" fill-opacity="1"><g transform="translate(73.453626, 21.553127)"><g><path d="M 11.953125 -15.640625 L 11.953125 -13.046875 L 5.125 -13.046875 L 5.125 -8.90625 L 11.3125 -8.90625 L 11.3125 -6.359375 L 5.125 -6.359375 L 5.125 0 L 2.03125 0 L 2.03125 -15.640625 Z M 11.953125 -15.640625 "/></g></g></g><g fill="#d4af37" fill-opacity="1"><g transform="translate(89.381199, 21.553127)"><g><path d="M 8.296875 0.21875 C 6.140625 0.21875 4.539062 -0.289062 3.5 -1.3125 C 2.457031 -2.332031 1.9375 -3.847656 1.9375 -5.859375 L 1.9375 -15.640625 L 4.96875 -15.640625 L 4.96875 -5.890625 C 4.96875 -4.742188 5.238281 -3.882812 5.78125 -3.3125 C 6.332031 -2.738281 7.171875 -2.453125 8.296875 -2.453125 C 10.503906 -2.453125 11.609375 -3.597656 11.609375 -5.890625 L 11.609375 -15.640625 L 14.640625 -15.640625 L 14.640625 -5.859375 C 14.640625 -3.847656 14.117188 -2.332031 13.078125 -1.3125 C 12.035156 -0.289062 10.441406 0.21875 8.296875 0.21875 Z M 8.296875 0.21875 "/></g></g></g><g fill="#d4af37" fill-opacity="1"><g transform="translate(109.244148, 21.553127)"><g><path d="M 4.859375 0 L 2.03125 0 L 2.03125 -15.640625 L 6.078125 -15.640625 L 10.03125 -4.140625 L 10.265625 -4.140625 L 14.1875 -15.640625 L 18.140625 -15.640625 L 18.140625 0 L 15.203125 0 L 15.203125 -10.328125 L 14.9375 -10.375 L 11.328125 0 L 8.75 0 L 5.140625 -10.375 L 4.859375 -10.328125 Z M 4.859375 0 "/></g></g></g><g fill="#d4af37" fill-opacity="1"><g transform="translate(132.710965, 21.553127)"><g><path d="M 5.125 -6.859375 L 5.125 -2.59375 L 12.59375 -2.59375 L 12.59375 0 L 2.03125 0 L 2.03125 -15.640625 L 12.421875 -15.640625 L 12.421875 -13.046875 L 5.125 -13.046875 L 5.125 -9.390625 L 11.5 -9.390625 L 11.5 -6.859375 Z M 5.125 -6.859375 "/></g></g></g><g fill="#d4af37" fill-opacity="1"><g transform="translate(22.823751, 41.300213)"><g><path d="M 6.21875 0.203125 C 5.25 0.203125 4.382812 0.0820312 3.625 -0.15625 C 2.863281 -0.394531 2.226562 -0.707031 1.71875 -1.09375 C 1.21875 -1.488281 0.832031 -1.921875 0.5625 -2.390625 L 2.09375 -4.25 L 2.328125 -4.25 C 2.753906 -3.625 3.289062 -3.125 3.9375 -2.75 C 4.59375 -2.382812 5.351562 -2.203125 6.21875 -2.203125 C 6.96875 -2.203125 7.53125 -2.359375 7.90625 -2.671875 C 8.28125 -2.984375 8.46875 -3.414062 8.46875 -3.96875 C 8.46875 -4.300781 8.40625 -4.578125 8.28125 -4.796875 C 8.164062 -5.023438 7.96875 -5.21875 7.6875 -5.375 C 7.40625 -5.539062 7.023438 -5.679688 6.546875 -5.796875 L 4.734375 -6.203125 C 3.472656 -6.492188 2.53125 -6.972656 1.90625 -7.640625 C 1.289062 -8.304688 0.984375 -9.175781 0.984375 -10.25 C 0.984375 -11.039062 1.179688 -11.738281 1.578125 -12.34375 C 1.984375 -12.945312 2.5625 -13.414062 3.3125 -13.75 C 4.070312 -14.082031 4.984375 -14.25 6.046875 -14.25 C 7.128906 -14.25 8.054688 -14.101562 8.828125 -13.8125 C 9.597656 -13.53125 10.25 -13.09375 10.78125 -12.5 L 9.40625 -10.625 L 9.15625 -10.625 C 8.757812 -11.039062 8.304688 -11.351562 7.796875 -11.5625 C 7.285156 -11.769531 6.703125 -11.875 6.046875 -11.875 C 5.285156 -11.875 4.703125 -11.738281 4.296875 -11.46875 C 3.898438 -11.195312 3.703125 -10.828125 3.703125 -10.359375 C 3.703125 -9.910156 3.84375 -9.554688 4.125 -9.296875 C 4.40625 -9.035156 4.890625 -8.832031 5.578125 -8.6875 L 7.421875 -8.296875 C 8.785156 -8.003906 9.773438 -7.515625 10.390625 -6.828125 C 11.003906 -6.140625 11.3125 -5.242188 11.3125 -4.140625 C 11.3125 -3.265625 11.117188 -2.5 10.734375 -1.84375 C 10.359375 -1.195312 9.789062 -0.691406 9.03125 -0.328125 C 8.269531 0.0234375 7.332031 0.203125 6.21875 0.203125 Z M 6.21875 0.203125 "/></g></g></g><g fill="#d4af37" fill-opacity="1"><g transform="translate(34.719766, 41.300213)"><g><path d="M 11.25 -14.046875 L 11.25 -11.703125 L 7.203125 -11.703125 L 7.203125 0 L 4.4375 0 L 4.4375 -11.703125 L 0.390625 -11.703125 L 0.390625 -14.046875 Z M 11.25 -14.046875 "/></g></g></g><g fill="#d4af37" fill-opacity="1"><g transform="translate(46.356601, 41.300213)"><g><path d="M 7.4375 0.203125 C 5.507812 0.203125 4.078125 -0.253906 3.140625 -1.171875 C 2.203125 -2.097656 1.734375 -3.460938 1.734375 -5.265625 L 1.734375 -14.046875 L 4.453125 -14.046875 L 4.453125 -5.28125 C 4.453125 -4.257812 4.695312 -3.488281 5.1875 -2.96875 C 5.6875 -2.457031 6.4375 -2.203125 7.4375 -2.203125 C 9.4375 -2.203125 10.4375 -3.226562 10.4375 -5.28125 L 10.4375 -14.046875 L 13.15625 -14.046875 L 13.15625 -5.265625 C 13.15625 -3.460938 12.6875 -2.097656 11.75 -1.171875 C 10.8125 -0.253906 9.375 0.203125 7.4375 0.203125 Z M 7.4375 0.203125 "/></g></g></g><g fill="#d4af37" fill-opacity="1"><g transform="translate(61.238691, 41.300213)"><g><path d="M 6.875 -14.046875 C 9.15625 -14.046875 10.894531 -13.457031 12.09375 -12.28125 C 13.300781 -11.101562 13.90625 -9.347656 13.90625 -7.015625 C 13.90625 -4.703125 13.300781 -2.953125 12.09375 -1.765625 C 10.894531 -0.585938 9.15625 0 6.875 0 L 1.828125 0 L 1.828125 -14.046875 Z M 6.71875 -2.328125 C 8.164062 -2.328125 9.242188 -2.695312 9.953125 -3.4375 C 10.671875 -4.175781 11.03125 -5.367188 11.03125 -7.015625 C 11.03125 -8.660156 10.671875 -9.851562 9.953125 -10.59375 C 9.242188 -11.332031 8.164062 -11.703125 6.71875 -11.703125 L 4.59375 -11.703125 L 4.59375 -2.328125 Z M 6.71875 -2.328125 "/></g></g></g><g fill="#d4af37" fill-opacity="1"><g transform="translate(76.245599, 41.300213)"><g><path d="M 4.59375 0 L 1.828125 0 L 1.828125 -14.046875 L 4.59375 -14.046875 Z M 4.59375 0 "/></g></g></g><g fill="#d4af37" fill-opacity="1"><g transform="translate(82.678503, 41.300213)"><g><path d="M 7.65625 0.203125 C 6.363281 0.203125 5.226562 -0.0546875 4.25 -0.578125 C 3.269531 -1.109375 2.5 -1.910156 1.9375 -2.984375 C 1.382812 -4.066406 1.109375 -5.410156 1.109375 -7.015625 C 1.109375 -8.628906 1.382812 -9.972656 1.9375 -11.046875 C 2.5 -12.128906 3.269531 -12.929688 4.25 -13.453125 C 5.226562 -13.984375 6.363281 -14.25 7.65625 -14.25 C 8.945312 -14.25 10.082031 -13.984375 11.0625 -13.453125 C 12.039062 -12.929688 12.804688 -12.128906 13.359375 -11.046875 C 13.910156 -9.972656 14.1875 -8.628906 14.1875 -7.015625 C 14.1875 -5.410156 13.910156 -4.066406 13.359375 -2.984375 C 12.804688 -1.898438 12.039062 -1.097656 11.0625 -0.578125 C 10.082031 -0.0546875 8.945312 0.203125 7.65625 0.203125 Z M 7.65625 -2.203125 C 8.84375 -2.203125 9.75 -2.582031 10.375 -3.34375 C 11.007812 -4.113281 11.328125 -5.335938 11.328125 -7.015625 C 11.328125 -8.691406 11.007812 -9.914062 10.375 -10.6875 C 9.75 -11.457031 8.84375 -11.84375 7.65625 -11.84375 C 6.457031 -11.84375 5.539062 -11.457031 4.90625 -10.6875 C 4.28125 -9.914062 3.96875 -8.691406 3.96875 -7.015625 C 3.96875 -5.335938 4.28125 -4.113281 4.90625 -3.34375 C 5.539062 -2.582031 6.457031 -2.203125 7.65625 -2.203125 Z M 7.65625 -2.203125 "/></g></g></g><g clip-path="url(#7f9e31b690)"><g transform="matrix(1, 0, 0, 1, 0, 4)"><g clip-path="url(#029f42c4ab)"><g clip-path="url(#586f4f6911)"><g fill="#000000" fill-opacity="1"><g transform="translate(18.828984, 38.552628)"><g><path d="M -13.421875 -10.75 L -11.1875 -10.75 L -11.1875 -6.890625 L 0 -6.890625 L 0 -4.234375 L -11.1875 -4.234375 L -11.1875 -0.359375 L -13.421875 -0.359375 Z M -13.421875 -10.75 "/></g></g></g></g><g fill="#000000" fill-opacity="1"><g transform="translate(18.828984, 27.426228)"><g><path d="M -8.375 -10.40625 L -13.421875 -10.40625 L -13.421875 -13.046875 L 0 -13.046875 L 0 -10.40625 L -6.109375 -10.40625 L -6.109375 -4.390625 L 0 -4.390625 L 0 -1.75 L -13.421875 -1.75 L -13.421875 -4.390625 L -8.375 -4.390625 Z M -8.375 -10.40625 "/></g></g></g><g fill="#000000" fill-opacity="1"><g transform="translate(18.828984, 12.618565)"><g><path d="M -5.890625 -4.390625 L -2.21875 -4.390625 L -2.21875 -10.796875 L 0 -10.796875 L 0 -1.75 L -13.421875 -1.75 L -13.421875 -10.65625 L -11.203125 -10.65625 L -11.203125 -4.390625 L -8.0625 -4.390625 L -8.0625 -9.859375 L -5.890625 -9.859375 Z M -5.890625 -4.390625 "/></g></g></g></g></g></g></svg>